HIERARCHY
ROOT Armature
{
  OFFSET 1.9679 50.7869 13.0653
  CHANNELS 6 Xposition Yposition Zposition Zrotation Xrotation Yrotation
  JOINT Core
  {
    OFFSET -0.635206 16.8572 -51.0592
    CHANNELS 6 Xposition Yposition Zposition Zrotation Xrotation Yrotation
    JOINT FrontLegIK.L
    {
      OFFSET 10.7636 40.3514 -10.2983
      CHANNELS 6 Xposition Yposition Zposition Zrotation Xrotation Yrotation
      JOINT FrontPaw.L
      {
        OFFSET 0 1.73155e-005 0
        CHANNELS 6 Xposition Yposition Zposition Zrotation Xrotation Yrotation
        End Site
        {
          OFFSET 0 4.33935 0
        }
      }
      JOINT FrontLegIKPole.L
      {
        OFFSET 0 27.4489 11.7029
        CHANNELS 6 Xposition Yposition Zposition Zrotation Xrotation Yrotation
        End Site
        {
          OFFSET 0 6.85387 0
        }
      }
    }
    JOINT BackLegIK.L
    {
      OFFSET 14.1749 -5.27545 -3.7701
      CHANNELS 6 Xposition Yposition Zposition Zrotation Xrotation Yrotation
      JOINT BackPaw.L
      {
        OFFSET 0 -1.20246e-005 1.26259e-005
        CHANNELS 6 Xposition Yposition Zposition Zrotation Xrotation Yrotation
        End Site
        {
          OFFSET 0 4.80673 0
        }
      }
      JOINT BackLegIKPole.L
      {
        OFFSET 0.227833 17.573 11.6015
        CHANNELS 6 Xposition Yposition Zposition Zrotation Xrotation Yrotation
        End Site
        {
          OFFSET 0 5.63838 0
        }
      }
    }
    JOINT BackLegIK.R
    {
      OFFSET -12.9044 -19.1551 -5.86817
      CHANNELS 6 Xposition Yposition Zposition Zrotation Xrotation Yrotation
      JOINT BackPaw.R
      {
        OFFSET 0 0 0
        CHANNELS 6 Xposition Yposition Zposition Zrotation Xrotation Yrotation
        End Site
        {
          OFFSET 0 4.80673 0
        }
      }
      JOINT BackLegIKPole.R
      {
        OFFSET -0.227834 17.573 11.6014
        CHANNELS 6 Xposition Yposition Zposition Zrotation Xrotation Yrotation
        End Site
        {
          OFFSET 0 5.63838 0
        }
      }
    }
    JOINT FrontLegIK.R
    {
      OFFSET -9.4932 30.6679 -2.7129
      CHANNELS 6 Xposition Yposition Zposition Zrotation Xrotation Yrotation
      JOINT FrontPaw.R
      {
        OFFSET 0 0 0
        CHANNELS 6 Xposition Yposition Zposition Zrotation Xrotation Yrotation
        End Site
        {
          OFFSET 0 4.33935 0
        }
      }
      JOINT FrontLegIKPole.R
      {
        OFFSET 0 27.4489 11.7029
        CHANNELS 6 Xposition Yposition Zposition Zrotation Xrotation Yrotation
        End Site
        {
          OFFSET 0 6.85387 0
        }
      }
    }
    JOINT SpineCtrl
    {
      OFFSET 0.635178 21.1139 -50.8686
      CHANNELS 6 Xposition Yposition Zposition Zrotation Xrotation Yrotation
      JOINT Spine2.001
      {
        OFFSET 0 0 0
        CHANNELS 6 Xposition Yposition Zposition Zrotation Xrotation Yrotation
        JOINT Spine2
        {
          OFFSET 0 12.1749 0
          CHANNELS 6 Xposition Yposition Zposition Zrotation Xrotation Yrotation
          JOINT Spine1
          {
            OFFSET 0 12.1749 0
            CHANNELS 6 Xposition Yposition Zposition Zrotation Xrotation Yrotation
            JOINT TailBottom
            {
              OFFSET 0 48.2991 5.34964
              CHANNELS 6 Xposition Yposition Zposition Zrotation Xrotation Yrotation
              End Site
              {
                OFFSET 0 0 0
              }
            }
            JOINT Tail1
            {
              OFFSET -0.574857 14.3966 0.537233
              CHANNELS 6 Xposition Yposition Zposition Zrotation Xrotation Yrotation
              JOINT Tail2
              {
                OFFSET 0 7.84149 0
                CHANNELS 6 Xposition Yposition Zposition Zrotation Xrotation Yrotation
                JOINT Tail3
                {
                  OFFSET 0 9.03055 0
                  CHANNELS 6 Xposition Yposition Zposition Zrotation Xrotation Yrotation
                  JOINT Tail4
                  {
                    OFFSET 0 8.20515 0
                    CHANNELS 6 Xposition Yposition Zposition Zrotation Xrotation Yrotation
                    JOINT Tail5
                    {
                      OFFSET 0 9.4978 0
                      CHANNELS 6 Xposition Yposition Zposition Zrotation Xrotation Yrotation
                      JOINT Tail6
                      {
                        OFFSET 0 6.51884 0
                        CHANNELS 6 Xposition Yposition Zposition Zrotation Xrotation Yrotation
                        End Site
                        {
                          OFFSET 0 6.10884 0
                        }
                      }
                    }
                  }
                }
              }
            }
            JOINT Bone
            {
              OFFSET 33.4069 38.6443 -2.41513
              CHANNELS 6 Xposition Yposition Zposition Zrotation Xrotation Yrotation
              JOINT TailTop
              {
                OFFSET 0 2.50112e-005 0
                CHANNELS 6 Xposition Yposition Zposition Zrotation Xrotation Yrotation
                End Site
                {
                  OFFSET 0 0 0
                }
              }
              JOINT Bone_end
              {
                OFFSET 0 12.2515 0
                CHANNELS 6 Xposition Yposition Zposition Zrotation Xrotation Yrotation
                End Site
                {
                  OFFSET 0 0 0
                }
              }
            }
            JOINT BackLeg1.L
            {
              OFFSET -1.91713 6.86269 -1.74095
              CHANNELS 6 Xposition Yposition Zposition Zrotation Xrotation Yrotation
              JOINT BackLeg2.L
              {
                OFFSET 0 10.1896 0
                CHANNELS 6 Xposition Yposition Zposition Zrotation Xrotation Yrotation
                JOINT BackLeg3.L
                {
                  OFFSET 0 27.6585 0
                  CHANNELS 6 Xposition Yposition Zposition Zrotation Xrotation Yrotation
                  JOINT BackLeg4.L
                  {
                    OFFSET 0 20.2079 0
                    CHANNELS 6 Xposition Yposition Zposition Zrotation Xrotation Yrotation
                    End Site
                    {
                      OFFSET 0 15.8172 0
                    }
                  }
                }
              }
            }
            JOINT BackLeg1.R
            {
              OFFSET -1.64678 6.86269 1.99861
              CHANNELS 6 Xposition Yposition Zposition Zrotation Xrotation Yrotation
              JOINT BackLeg2.R
              {
                OFFSET 0 11.0754 0
                CHANNELS 6 Xposition Yposition Zposition Zrotation Xrotation Yrotation
                JOINT BackLeg3.R
                {
                  OFFSET 0 25.8903 0
                  CHANNELS 6 Xposition Yposition Zposition Zrotation Xrotation Yrotation
                  JOINT BackLeg4.R
                  {
                    OFFSET 0 20.2079 0
                    CHANNELS 6 Xposition Yposition Zposition Zrotation Xrotation Yrotation
                    End Site
                    {
                      OFFSET 0 15.8171 0
                    }
                  }
                }
              }
            }
          }
        }
      }
      JOINT Spine3
      {
        OFFSET 0 0 0
        CHANNELS 6 Xposition Yposition Zposition Zrotation Xrotation Yrotation
        JOINT Neck
        {
          OFFSET 0 14.1391 0
          CHANNELS 6 Xposition Yposition Zposition Zrotation Xrotation Yrotation
          JOINT Head2
          {
            OFFSET 0 2.99801 0
            CHANNELS 6 Xposition Yposition Zposition Zrotation Xrotation Yrotation
            End Site
            {
              OFFSET 0 6.46164 0
            }
          }
        }
        JOINT HeadIK
        {
          OFFSET -0.175681 20.3563 -7.09281
          CHANNELS 6 Xposition Yposition Zposition Zrotation Xrotation Yrotation
          JOINT Head
          {
            OFFSET 0 0 0
            CHANNELS 6 Xposition Yposition Zposition Zrotation Xrotation Yrotation
            JOINT Ear.L
            {
              OFFSET 11.0469 5.26744 -12.0054
              CHANNELS 6 Xposition Yposition Zposition Zrotation Xrotation Yrotation
              End Site
              {
                OFFSET 0 10.1211 0
              }
            }
            JOINT Ear.R
            {
              OFFSET -8.84548 5.02071 -13.5443
              CHANNELS 6 Xposition Yposition Zposition Zrotation Xrotation Yrotation
              End Site
              {
                OFFSET 0 10.1211 0
              }
            }
          }
          JOINT Eyes.Base
          {
            OFFSET 0.675326 25.1229 -12.9166
            CHANNELS 6 Xposition Yposition Zposition Zrotation Xrotation Yrotation
            End Site
            {
              OFFSET 0 4.98183 0
            }
          }
          JOINT Eyes.Target
          {
            OFFSET 0.675326 25.1229 -12.9166
            CHANNELS 6 Xposition Yposition Zposition Zrotation Xrotation Yrotation
            End Site
            {
              OFFSET 0 10.8137 0
            }
          }
        }
        JOINT FrontLeg1.L
        {
          OFFSET 6.15836 4.29787 -0.644035
          CHANNELS 6 Xposition Yposition Zposition Zrotation Xrotation Yrotation
          JOINT FrontLeg2.L
          {
            OFFSET 0 18.7233 0
            CHANNELS 6 Xposition Yposition Zposition Zrotation Xrotation Yrotation
            JOINT FrontLeg3.L
            {
              OFFSET 0 16.9177 0
              CHANNELS 6 Xposition Yposition Zposition Zrotation Xrotation Yrotation
              JOINT FrontLeg4.L
              {
                OFFSET 0 10.6804 0
                CHANNELS 6 Xposition Yposition Zposition Zrotation Xrotation Yrotation
                End Site
                {
                  OFFSET 0 9.99857 0
                }
              }
            }
          }
        }
        JOINT FrontLeg1.R
        {
          OFFSET -5.81052 4.29786 -0.644037
          CHANNELS 6 Xposition Yposition Zposition Zrotation Xrotation Yrotation
          JOINT FrontLeg2.R
          {
            OFFSET 0 18.8001 0
            CHANNELS 6 Xposition Yposition Zposition Zrotation Xrotation Yrotation
            JOINT FrontLeg3.R
            {
              OFFSET 0 16.9176 0
              CHANNELS 6 Xposition Yposition Zposition Zrotation Xrotation Yrotation
              JOINT FrontLeg4.R
              {
                OFFSET 0 10.6804 0
                CHANNELS 6 Xposition Yposition Zposition Zrotation Xrotation Yrotation
                End Site
                {
                  OFFSET 0 9.99855 0
                }
              }
            }
          }
        }
      }
    }
  }
  JOINT Bone.001
  {
    OFFSET 0 -39.5765 2.47907
    CHANNELS 6 Xposition Yposition Zposition Zrotation Xrotation Yrotation
    End Site
    {
      OFFSET 0 9.50183 0
    }
  }
  JOINT Bone.002
  {
    OFFSET 6.39762 -39.5765 2.47907
    CHANNELS 6 Xposition Yposition Zposition Zrotation Xrotation Yrotation
    End Site
    {
      OFFSET 0 5.86173 0
    }
  }
}
MOTION
Frames:	4
Frame Time:	0.0416667
1.9679 50.7869 13.0653 -180 -90 -180 -0.635206 16.8572 -51.0592 -180 7.01671e-015 180 5.93712 39.8976 -2.71292 -7.01671e-015 7.01671e-015 -180 -3.36689e-006 1.15436e-005 -1.92394e-005 -7.41201e-006 -35.3567 180 -1.92394e-006 27.4489 11.7029 0 0 -1.92796e-021 17.6825 25.1446 -2.96314 -28.9696 -1.74586e-005 -180 -2.786e-007 -1.07401e-006 9.67576e-013 -60 -29.4394 -180 11.6012 11.2765 11.6014 -20 -1.07492e-012 3.61882e-012 -16.4121 25.1446 -2.96312 28.9696 1.74586e-005 -180 4.05027e-006 -2.77386e-006 -3.84788e-006 60 -29.4392 -180 -11.6012 11.2765 11.6014 20 -1.51661e-021 -3.79152e-022 -4.66671 39.8976 -2.7129 -7.01671e-015 7.01671e-015 -180 1.44295e-006 5.77182e-006 3.84788e-006 1.35321e-006 -35.3568 -180 4.47952e-016 27.4489 11.7029 0 0 -1.92796e-021 0.63518 21.0449 -48.221 180 -79.4416 180 3.21851e-006 -9.20274 -13.2966 -180 -38.8413 89.9992 7.81542e-007 12.1749 -1.16969e-011 9.35645 0.000138423 -1.10482e-005 -9.62025e-007 12.1749 2.54582e-011 2.06353 2.99622e-005 -4.13412 3.48714e-006 48.2991 5.34964 -0.450778 -21.691 -40.3435 -0.478179 14.6581 0.530243 -50.6567 -30.3863 -2.24778 -4.22365e-006 7.72796 -7.21477e-007 -8.90399 -32.2055 -2.67286 1.20302e-006 8.76707 2.9086e-006 4.26484 -51.6663 4.2739 -4.81215e-007 7.5867 1.47462e-006 5.30434 -42.6182 2.6597 -5.29363e-006 8.97012 -3.28589e-006 0.0933185 -0.0440016 0.000117156 3.84988e-006 5.7118 -3.15951e-006 0.0465511 -0.103481 -0.056524 -1.40023 13.2827 -22.0967 72.5611 -53.8579 -148.955 -3.84788e-006 2.11633e-005 -3.84788e-006 4.21306e-007 -0.249878 -2.56043e-006 0 12.2515 -1.79181e-015 -0 -3.18055e-015 -0 -0.270029 2.06618 -1.99544 39.2826 -26.2641 -127.853 -8.95904e-016 10.1896 -2.16443e-006 -84.611 66.4938 -116.049 -3.39695e-006 27.6585 1.20246e-006 -150.851 10.2232 -174.455 -2.04419e-006 20.2079 -1.29265e-006 -179.67 -42.5225 -177.327 0.98444 2.51701 1.98154 50.3492 29.5578 -52.5442 9.61969e-007 11.0754 -2.40492e-007 60.564 67.7691 132.639 4.80985e-007 25.8903 2.16443e-006 149.903 11.4597 173.2 -3.60739e-007 20.2079 2.07425e-006 179.644 -44.6585 177.309 2.74773e-008 -1.68345e-006 -4.80984e-007 4.56873e-005 71.0589 -3.39906e-005 5.75618e-014 14.1391 -7.21476e-007 10.7128 -50.9194 17.5096 6.01231e-008 2.99801 3.72012e-007 -7.57571 5.13264 -10.7609 -0.175681 20.3563 -7.09281 -0.631438 39.2148 3.56413 4.90379e-007 -5.63055e-006 -3.74642e-006 -0.184782 0.630238 1.26632 11.0469 5.26744 -12.0054 -80.4681 -53.9038 -171.486 -8.84548 5.02071 -13.5443 79.3821 -62.6168 168.546 0.675325 25.1229 -12.9166 10.3637 72.1295 169.636 0.675326 25.1229 -12.9166 10.3637 72.1295 169.637 6.15836 4.29787 -0.644035 -48.4227 73.5339 44.3584 -4.80985e-007 18.7233 2.25462e-006 19.8526 59.3996 0.380403 7.21477e-007 16.9177 -3.66751e-006 -7.78066e-005 -37.2877 6.67589e-006 5.41108e-007 10.6804 1.87885e-006 -2.41897e-005 -13.0743 -5.30492e-005 -5.81052 4.29786 -0.644037 50.7972 72.7593 -48.5755 4.80985e-007 18.8001 -1.20246e-007 -23.9191 58.7062 3.1532 -1.20246e-006 16.9176 -1.80369e-007 -0.000167057 -37.2875 0.000110144 4.20862e-007 10.6804 1.31519e-006 -4.19591e-005 -13.0742 -0.000146314 4.20862e-006 -39.5765 2.47907 -180 90 -180 6.39762 -39.5765 2.47907 -180 90 -180 
1.9679 50.7869 13.0653 -180 -90 -180 -0.635206 16.8572 -51.0592 -180 7.01671e-015 180 5.93712 39.8976 -2.71292 -7.01671e-015 7.01671e-015 -180 -3.28673e-006 1.14902e-005 -1.83843e-005 -7.41201e-006 -35.3567 180 -1.92394e-006 27.4489 11.7029 0 0 -1.92796e-021 17.6546 24.968 -2.96314 -28.7429 0.0853883 -179.863 -1.96828e-007 -1.54877e-006 -2.1377e-007 -59.3529 -29.4394 -180 11.473 11.3475 11.6014 -19.7755 -1.01524e-012 3.598e-012 -16.3668 25.1268 -2.96312 28.7635 1.64886e-005 -180 3.89155e-006 -2.51287e-006 -2.99279e-006 59.3529 -29.4392 -180 -11.473 11.3475 11.6014 19.7755 0 -7.06789e-016 -4.71684 38.0376 -6.03519 -7.01671e-015 7.01671e-015 -180 1.20246e-006 5.29083e-006 3.42034e-006 1.35321e-006 -35.3568 -180 0 27.4489 11.7029 0 0 -1.92796e-021 0.63518 21.0449 -48.2825 180 -79.4416 180 3.04123e-006 -9.09895 -13.1467 -180 -39.511 89.9992 7.3812e-007 12.1749 -1.1044e-011 9.25103 0.000127098 -1.04176e-005 -9.08961e-007 12.1749 2.40297e-011 1.80266 8.01143e-006 -4.13412 3.48714e-006 48.2991 5.34964 -0.450778 -21.691 -40.3435 -0.97327 14.8687 0.566035 -49.5899 -30.3384 -1.92327 -3.88587e-006 7.73253 -6.87241e-007 -9.06502 -32.1657 -2.7162 1.25041e-006 8.77226 2.74478e-006 3.93889 -51.7075 4.11703 -2.71111e-007 7.59119 1.38453e-006 5.06336 -42.6409 2.56586 -5.19195e-006 8.97246 -3.08496e-006 0.0939158 -0.0520848 0.000154386 3.87537e-006 5.70775 -2.98231e-006 0.046551 -0.103481 -0.0565223 -1.11836 13.74 -21.8667 73.2673 -53.2029 -147.269 -4.48919e-006 2.13771e-005 -3.54058e-006 5.03875e-007 -0.249878 -2.42078e-006 0 12.2515 -1.79181e-015 -3.18055e-015 -5.56597e-015 -6.36111e-015 -0.288607 2.12027 -1.99257 39.2826 -26.2641 -127.853 5.34427e-008 10.1896 -2.09095e-006 -85.03 66.6101 -115.891 -3.12807e-006 27.6585 9.55289e-007 -151.19 10.7395 -175.001 -1.96736e-006 20.2079 -1.37448e-006 -179.676 -41.9547 -177.331 0.954767 2.56602 1.98248 50.3492 29.5578 -52.5442 8.81805e-007 11.0754 -4.14181e-007 60.8582 67.9436 132.606 4.00821e-007 25.8903 1.83041e-006 150.306 12.5638 173.746 -3.20656e-007 20.2079 2.1995e-006 179.651 -44.1171 177.314 2.74773e-008 -1.69597e-006 -4.82967e-007 4.58498e-005 71.1474 -3.41443e-005 6.04735e-014 14.1391 -6.74714e-007 10.7128 -50.9194 17.5097 5.17727e-008 2.99801 4.34431e-007 -7.57575 5.13266 -10.7609 -0.175681 20.3563 -7.09281 -0.631438 39.2148 3.56413 5.04053e-007 -5.79063e-006 -3.60963e-006 -0.184782 0.630238 1.26632 11.0469 5.26744 -12.0054 -80.4681 -53.9038 -171.486 -8.84548 5.02071 -13.5443 79.3821 -62.6168 168.546 0.675325 25.1229 -12.9166 10.3637 72.1295 169.636 0.675326 25.1229 -12.9166 10.3637 72.1295 169.637 6.15836 4.29787 -0.644035 -48.4227 73.5339 44.3584 -5.47788e-007 18.7233 2.07759e-006 19.8352 59.2487 0.404567 6.74285e-007 16.9177 -3.4784e-006 -7.72224e-005 -37.2387 7.03877e-006 5.0917e-007 10.6804 1.69132e-006 -2.39428e-005 -13.04 -5.30126e-005 -5.81052 4.29786 -0.644037 50.7972 72.7593 -48.5755 4.54263e-007 18.8001 1.67008e-009 -28.3622 72.8235 6.5015 -1.12502e-006 16.9176 -1.29421e-007 -0.000261566 -52.9268 2.90139e-005 4.07728e-007 10.6804 1.25963e-006 -7.37968e-005 -24.6268 -0.000156687 4.20862e-006 -39.5765 2.47907 -180 90 -180 6.39762 -39.5765 2.47907 -180 90 -180 
1.9679 50.7869 13.0653 -180 -90 -180 -0.635206 16.8572 -51.0592 -180 7.01671e-015 180 5.93712 39.8976 -2.71292 -7.01671e-015 7.01671e-015 -180 -3.20657e-006 1.14367e-005 -1.75292e-005 -7.41201e-006 -35.3567 180 -1.92394e-006 27.4489 11.7029 0 0 -1.92796e-021 17.5522 24.3186 -2.96314 -27.911 0.386113 -179.727 -1.15056e-007 -2.02353e-006 -4.27541e-007 -57.3855 -29.4394 -180 11.0853 11.5621 11.6014 -19.0967 -9.55359e-013 3.57717e-012 -16.1942 25.0023 -2.96312 27.929 1.55187e-005 -180 3.73283e-006 -2.25188e-006 -2.13771e-006 57.3855 -29.4392 -180 -11.0853 11.5621 11.6014 19.0967 1.51661e-021 -1.41358e-015 -5.06774 34.6372 -9.35749 -7.01671e-015 7.01671e-015 -180 9.6197e-007 4.80985e-006 2.99279e-006 1.35321e-006 -35.3568 -180 -4.47952e-016 27.4489 11.7029 0 0 -1.92796e-021 0.63518 21.0449 -48.344 180 -79.4416 180 2.86395e-006 -8.78528 -12.6935 -180 -41.5473 89.9992 6.94697e-007 12.1749 -1.03909e-011 8.93238 0.000115772 -9.78709e-006 -8.55897e-007 12.1749 2.26012e-011 1.01357 -1.39393e-005 -4.13413 3.48714e-006 48.2991 5.34964 -0.450778 -21.691 -40.3435 -2.01665 15.2643 0.641466 -47.4059 -29.8657 -1.20656 -3.5481e-006 7.7371 -6.53004e-007 -9.10989 -30.564 -2.58527 1.2978e-006 8.79938 2.58112e-006 3.56215 -51.7499 3.92222 -6.10144e-008 7.56185 1.29468e-006 5.35081 -45.3446 2.86941 -5.09018e-006 8.93483 -2.90176e-006 0.0947037 -0.0622772 0.000191616 3.90088e-006 5.6783 -2.82229e-006 0.0465509 -0.103481 -0.0565206 -0.263396 15.1231 -21.1719 75.2265 -51.0573 -142.184 -5.1305e-006 2.15909e-005 -3.23329e-006 5.86445e-007 -0.249878 -2.28113e-006 0 12.2515 -1.79181e-015 -3.18055e-015 -9.54166e-015 -1.59028e-015 -0.344749 2.28376 -1.9839 39.2826 -26.2641 -127.853 1.06885e-007 10.1896 -2.01746e-006 -86.465 66.8287 -115.23 -2.85919e-006 27.6585 7.08116e-007 -152.058 12.0723 -176.378 -1.89054e-006 20.2079 -1.45632e-006 -179.694 -40.3341 -177.343 0.865078 2.71414 1.98342 50.3492 29.5578 -52.5442 8.01641e-007 11.0754 -5.8787e-007 62.1653 68.306 132.056 3.20657e-007 25.8903 1.4964e-006 151.305 15.9577 175.029 -2.80574e-007 20.2079 2.32476e-006 179.669 -42.5528 177.327 2.74773e-008 -1.7085e-006 -4.8495e-007 4.635e-005 71.4149 -3.46181e-005 6.33852e-014 14.1391 -6.27951e-007 10.7129 -50.9194 17.5097 4.34222e-008 2.99801 4.96851e-007 -7.57579 5.13269 -10.7609 -0.175681 20.3563 -7.09281 -0.631438 39.2148 3.56413 5.17727e-007 -5.95071e-006 -3.47284e-006 -0.184782 0.630238 1.26632 11.0469 5.26744 -12.0054 -80.4681 -53.9038 -171.486 -8.84548 5.02071 -13.5443 79.3821 -62.6168 168.546 0.675325 25.1229 -12.9166 10.3638 72.1295 169.636 0.675326 25.1229 -12.9166 10.3637 72.1295 169.637 6.15836 4.29787 -0.644035 -48.4227 73.5339 44.3584 -6.14592e-007 18.7233 1.90056e-006 19.7783 58.7912 0.476297 6.27092e-007 16.9177 -3.2893e-006 -7.66554e-005 -37.0888 7.39132e-006 4.77233e-007 10.6804 1.50379e-006 -2.36289e-005 -12.935 -5.2961e-005 -5.81052 4.29786 -0.644037 50.7972 72.7593 -48.5755 4.27542e-007 18.8001 1.23586e-007 -63.3182 86.7359 40.4271 -1.04757e-006 16.9176 -7.84727e-008 -0.000445097 -64.3107 -0.000121456 3.94595e-007 10.6804 1.20407e-006 -0.000102708 -33.5957 -0.000170893 4.20862e-006 -39.5765 2.47907 -180 90 -180 6.39762 -39.5765 2.47907 -180 90 -180 
1.9679 50.7869 13.0653 -180 -90 -180 -0.635206 16.8572 -51.0592 -180 7.01671e-015 180 5.93712 39.8976 -2.71292 -7.01671e-015 7.01671e-015 -180 -3.1264e-006 1.13833e-005 -1.66741e-005 -7.41201e-006 -35.3567 180 -1.92394e-006 27.4489 11.7029 0 0 -1.92796e-021 17.3961 23.327 -2.96314 -26.6384 0.846045 -179.59 -3.32838e-008 -2.49829e-006 -6.41312e-007 -54.0827 -29.4394 -180 10.4416 11.9185 11.6014 -17.9683 -8.96121e-013 3.55636e-012 -15.9164 24.712 -2.96312 26.5672 1.45488e-005 -180 3.57411e-006 -1.9909e-006 -1.28263e-006 54.0827 -29.4393 -180 -10.4416 11.9185 11.6014 17.9683 -1.51661e-021 -2.12037e-015 -7.43085 31.2368 -6.03519 -7.01671e-015 7.01671e-015 -180 7.21477e-007 4.32886e-006 2.56525e-006 1.35321e-006 -35.3568 -180 -8.95904e-016 27.4489 11.7029 0 0 -1.92796e-021 0.63518 21.0449 -48.4973 180 -79.4416 180 2.68667e-006 -8.26445 -11.9409 -180 -44.9671 89.9992 6.51275e-007 12.1749 -9.73803e-012 8.40316 0.000104447 -9.15656e-006 -8.02833e-007 12.1749 2.11727e-011 -0.298741 -3.589e-005 -4.13413 3.48714e-006 48.2991 5.34964 -0.450778 -21.691 -40.3435 -3.15189 15.6023 0.723537 -45.2567 -28.8595 -0.450784 -3.21032e-006 7.76029 -6.18767e-007 -8.61805 -26.7751 -2.13157 1.34518e-006 8.85116 2.4138e-006 3.76407 -49.1652 3.77323 1.49074e-007 7.44586 1.20049e-006 8.949 -54.9125 5.51133 -4.9883e-006 8.7369 -2.7587e-006 0.0981728 -0.0834066 0.000228846 3.92642e-006 5.49836 -2.70177e-006 0.0465508 -0.103481 -0.0565189 1.16292 17.4224 -20.0188 77.834 -46.9327 -133.788 -5.77182e-006 2.18046e-005 -2.92599e-006 6.69014e-007 -0.249878 -2.14148e-006 3.58361e-015 12.2515 0 -6.36111e-015 2.88238e-015 1.98785e-015 -0.437962 2.55521 -1.96949 39.2826 -26.2641 -127.853 1.60328e-007 10.1896 -1.94398e-006 -88.9358 67.1419 -114.043 -2.5903e-006 27.6585 4.60944e-007 -153.628 15.4487 -178.86 -1.81371e-006 20.2079 -1.53815e-006 -179.72 -37.8991 -177.359 0.716166 2.96008 1.98436 50.3492 29.5578 -52.5442 7.21477e-007 11.0754 -7.61559e-007 64.5239 68.85 130.946 2.40492e-007 25.8903 1.16238e-006 152.828 22.2131 177.016 -2.40492e-007 20.2079 2.45001e-006 179.694 -40.3179 177.343 2.74774e-008 -1.72102e-006 -4.86933e-007 4.72122e-005 71.8592 -3.54363e-005 6.67448e-014 14.1391 -5.81189e-007 10.7129 -50.9194 17.5098 3.50718e-008 2.99801 5.5927e-007 -7.57583 5.13272 -10.7609 -0.175681 20.3563 -7.09281 -0.631438 39.2148 3.56413 5.31401e-007 -6.11079e-006 -3.33605e-006 -0.184782 0.630238 1.26632 11.0469 5.26744 -12.0054 -80.4681 -53.9038 -171.486 -8.84548 5.02071 -13.5443 79.3821 -62.6168 168.546 0.675325 25.1229 -12.9166 10.3638 72.1295 169.636 0.675326 25.1229 -12.9166 10.3637 72.1295 169.637 6.15836 4.29787 -0.644035 -48.4227 73.5339 44.3584 -6.81395e-007 18.7233 1.72353e-006 19.6869 58.026 0.591256 5.799e-007 16.9177 -3.10019e-006 -7.61084e-005 -36.8339 7.7319e-006 4.45295e-007 10.6804 1.31626e-006 -2.32456e-005 -12.7565 -5.28941e-005 -5.81052 4.29786 -0.644037 50.7972 72.7593 -48.5755 4.00821e-007 18.8001 2.45503e-007 -21.4867 84.372 3.984 -9.70128e-007 16.9176 -2.75243e-008 -0.000255487 -52.5047 3.30858e-005 3.81461e-007 10.6804 1.1485e-006 -7.20327e-005 -24.3026 -0.000156093 4.20862e-006 -39.5765 2.47907 -180 90 -180 6.39762 -39.5765 2.47907 -180 90 -180 
